<svg id="Слой_1" data-name="Слой 1" xmlns="http://www.w3.org/2000/svg" viewBox="0 0 67.51 67.52"><defs><style>.cls-1{fill:#eee;}</style></defs><title>github</title><path class="cls-1" d="M25.7,57.48c0,.12,0,.34,0,.56l0,4.88c0,1.53-.94,2.24-2.4,1.75a30.16,30.16,0,0,1-10-5.54C5.2,52.27,1.15,43.47,1.7,32.83a31.66,31.66,0,0,1,24-29.1,32.15,32.15,0,0,1,39,22.36A31.83,31.83,0,0,1,44.25,64.64c-1.6.53-2.53-.13-2.52-1.81,0-2.29,0-4.58,0-6.87,0-2.63-.08-5.19-2.07-7.31,1.17-.22,2.25-.36,3.3-.62a23.12,23.12,0,0,0,3.19-1c4.67-1.9,7-5.55,7.78-10.39A18.4,18.4,0,0,0,54,30.5a11.83,11.83,0,0,0-2.66-5.65,1,1,0,0,1-.24-1.08,11.59,11.59,0,0,0-.33-7.4.71.71,0,0,0-.8-.53A10.14,10.14,0,0,0,45.67,17c-1.18.57-2.3,1.29-3.47,1.9a1.33,1.33,0,0,1-.89.15,31.48,31.48,0,0,0-15.1,0,1.45,1.45,0,0,1-1-.21,19.17,19.17,0,0,0-6.67-2.89l-.3,0C17,15.72,16.87,15.76,16.5,17a11.52,11.52,0,0,0-.1,7,.83.83,0,0,1-.12.67c-2.86,3.29-3.44,7.17-2.84,11.3a20.08,20.08,0,0,0,1.11,4.41c1.62,4.21,4.95,6.44,9.16,7.53,1.29.33,2.62.54,4,.82a7.54,7.54,0,0,0-1.89,3.93c0,.17-.27.35-.46.43-3.4,1.31-6.74.78-8.86-2.73A6.49,6.49,0,0,0,12.17,47a4,4,0,0,0-1.51.05c-.61.14-.7.51-.27,1a3.58,3.58,0,0,0,.81.7,8.58,8.58,0,0,1,3.53,4.37,7,7,0,0,0,6.44,4.47A38.55,38.55,0,0,0,25.7,57.48Z"/><path class="cls-1" d="M23.16,54.83c-.25.11-.51.34-.75.31s-.43-.3-.64-.47c.21-.14.41-.38.63-.39s.5.17.75.27Z"/><path class="cls-1" d="M18.44,53.15c-.38.21-.62.42-.7.38a3.17,3.17,0,0,1-.7-.67s.31-.41.36-.38A7.16,7.16,0,0,1,18.44,53.15Z"/><path class="cls-1" d="M19.82,53.62l.65.81c-.23.11-.48.34-.66.3s-.43-.34-.64-.52Z"/><path class="cls-1" d="M24.94,53.78l.6.54a3.37,3.37,0,0,1-.8.53c-.12,0-.35-.26-.52-.41Z"/><path class="cls-1" d="M16.68,51.35c-.28.18-.51.38-.55.34a2.92,2.92,0,0,1-.6-.66,1.3,1.3,0,0,1,.37-.37A9.47,9.47,0,0,1,16.68,51.35Z"/><path class="cls-1" d="M14.6,48.8a8.41,8.41,0,0,1,.55.81s-.3.3-.32.27a1.94,1.94,0,0,1-.53-.54C14.26,49.28,14.43,49.09,14.6,48.8Z"/></svg>