<svg id="Слой_1" data-name="Слой 1" xmlns="http://www.w3.org/2000/svg" viewBox="0 0 67.51 67.52"><defs><style>.cls-1{fill:#eee;}</style></defs><title>inst</title><path class="cls-1" d="M54.46,0H13.05A13.07,13.07,0,0,0,0,13.05V54.47a13.07,13.07,0,0,0,13.05,13H54.46a13.07,13.07,0,0,0,13.05-13V13.05A13.07,13.07,0,0,0,54.46,0ZM58.2,7.78h1.5V19.22l-11.41,0,0-11.44Zm-34.08,19a11.87,11.87,0,1,1-2.24,6.93A11.86,11.86,0,0,1,24.12,26.83ZM60.93,54.47a6.48,6.48,0,0,1-6.47,6.47H13.05a6.48,6.48,0,0,1-6.47-6.47V26.83H16.66a18.18,18.18,0,0,0-1.36,6.93,18.46,18.46,0,1,0,35.55-6.93H60.93Z"/></svg>